HIERARCHY
ROOT Hips
{
	OFFSET -0.001795 -0.223333 0.028219
	CHANNELS 6 Xposition Yposition Zposition Zrotation Yrotation Xrotation 
	JOINT LeftUpLeg
	{
		OFFSET 0.069520 -0.091406 -0.006815
		CHANNELS 3 Zrotation Yrotation Xrotation
		JOINT LeftLeg
		{
			OFFSET 0.034277 -0.375199 -0.004496
			CHANNELS 3 Zrotation Yrotation Xrotation
			JOINT LeftFoot
			{
				OFFSET -0.013596 -0.397961 -0.043693
				CHANNELS 3 Zrotation Yrotation Xrotation
				JOINT LeftToe
				{
					OFFSET 0.026358 -0.055791 0.119288
					CHANNELS 3 Zrotation Yrotation Xrotation
					End Site
					{
						OFFSET 0.000000 0.000000 0.000000
					}
				}
			}
		}
	}
	JOINT RightUpLeg
	{
		OFFSET -0.067670 -0.090522 -0.004320
		CHANNELS 3 Zrotation Yrotation Xrotation
		JOINT RightLeg
		{
			OFFSET -0.038290 -0.382569 -0.008850
			CHANNELS 3 Zrotation Yrotation Xrotation
			JOINT RightFoot
			{
				OFFSET 0.015774 -0.398415 -0.042312
				CHANNELS 3 Zrotation Yrotation Xrotation
				JOINT RightToe
				{
					OFFSET -0.025372 -0.048144 0.123348
					CHANNELS 3 Zrotation Yrotation Xrotation
					End Site
					{
						OFFSET 0.000000 0.000000 0.000000
					}
				}
			}
		}
	}
	JOINT Spine
	{
		OFFSET -0.002533 0.108963 -0.026696
		CHANNELS 3 Zrotation Yrotation Xrotation
		JOINT Spine1
		{
			OFFSET 0.005487 0.135180 0.001092
			CHANNELS 3 Zrotation Yrotation Xrotation
			JOINT Spine2
			{
				OFFSET 0.001457 0.052922 0.025425
				CHANNELS 3 Zrotation Yrotation Xrotation
				JOINT Neck
				{
					OFFSET -0.002778 0.213870 -0.042857
					CHANNELS 3 Zrotation Yrotation Xrotation
					JOINT Head
					{
						OFFSET 0.005152 0.064970 0.051349
						CHANNELS 3 Zrotation Yrotation Xrotation
						End Site
						{
							OFFSET 0.000000 0.000000 0.000000
						}
					}
				}
				JOINT LeftShoulder
				{
					OFFSET 0.078845 0.121749 -0.034090
					CHANNELS 3 Zrotation Yrotation Xrotation
					JOINT LeftArm
					{
						OFFSET 0.090977 0.030469 -0.008868
						CHANNELS 3 Zrotation Yrotation Xrotation
						JOINT LeftForeArm
						{
							OFFSET 0.259612 -0.012772 -0.027456
							CHANNELS 3 Zrotation Yrotation Xrotation
							JOINT LeftHand
							{
								OFFSET 0.249234 0.008986 -0.001171
								CHANNELS 3 Zrotation Yrotation Xrotation
								End Site
								{
									OFFSET 0.000000 0.000000 0.000000
								}
							}
						}
					}
				}
				JOINT RightShoulder
				{
					OFFSET -0.081759 0.118833 -0.038615
					CHANNELS 3 Zrotation Yrotation Xrotation
					JOINT RightArm
					{
						OFFSET -0.096012 0.032551 -0.009143
						CHANNELS 3 Zrotation Yrotation Xrotation
						JOINT RightForeArm
						{
							OFFSET -0.253742 -0.013329 -0.021401
							CHANNELS 3 Zrotation Yrotation Xrotation
							JOINT RightHand
							{
								OFFSET -0.255298 0.007772 -0.005559
								CHANNELS 3 Zrotation Yrotation Xrotation
								End Site
								{
									OFFSET 0.000000 0.000000 0.000000
								}
							}
						}
					}
				}
			}
		}
	}
}
MOTION
Frames: 10
Frame Time: 0.050000
0.000000 0.941225 0.000000 -0.072894 -3.505151 7.109816 6.055783 -0.297380 -4.103921 0.146402 0.135392 -4.280874 1.570945 6.016011 9.036179 0.000000 0.000000 0.000000 -3.845638 0.525757 -5.153146 -2.291669 0.019156 -3.409889 -0.016551 -4.339638 8.965577 0.000000 0.000000 0.000000 5.133403 0.330189 -5.571152 -2.671964 1.209154 -4.714503 -3.844589 4.915287 4.530944 4.960680 -2.197215 -10.902452 0.000000 0.000000 0.000000 -14.973278 1.486678 -2.850654 -55.983325 -6.570812 -3.553245 -7.779752 -15.179671 1.492484 0.000000 0.000000 0.000000 12.243964 -8.258519 -4.479925 64.374130 3.547447 -3.925384 9.181032 20.181577 2.283476 0.000000 0.000000 0.000000 
0.000102 0.940714 0.000502 -0.182715 -4.343987 8.004518 5.904195 -0.283703 -3.586483 0.486402 0.175661 -5.886801 1.825703 6.416959 9.193814 0.000000 0.000000 0.000000 -3.936780 0.630281 -6.481400 -2.511097 0.052854 -3.015825 0.598420 -3.412192 9.507687 0.000000 0.000000 0.000000 6.280729 0.399994 -6.159219 -3.435901 1.514421 -4.953226 -4.686870 5.473407 3.848636 4.605273 -1.865363 -11.328258 0.000000 0.000000 0.000000 -16.128187 2.304834 -3.515537 -54.645726 -6.609490 -3.334408 -8.370133 -14.755745 1.511844 0.000000 0.000000 0.000000 11.905241 -9.517766 -5.009285 65.571608 2.298631 -4.549041 9.547976 20.055947 2.329718 0.000000 0.000000 0.000000 
0.000171 0.940529 0.000699 0.250105 -4.052841 7.835054 5.474359 -0.310482 -4.103021 0.696748 0.083171 -4.035219 1.484910 5.474295 7.732383 0.000000 0.000000 0.000000 -4.183719 0.639767 -6.702335 -2.797154 0.094719 -2.693003 -0.098524 -4.660453 9.189161 0.000000 0.000000 0.000000 5.928944 0.347084 -5.694326 -3.166150 1.384456 -6.302013 -5.011138 4.863055 4.533248 3.924140 -1.491735 -11.096908 0.000000 0.000000 0.000000 -16.110041 2.092358 -3.299378 -54.691253 -6.134068 -3.635646 -7.829399 -14.300010 1.416813 0.000000 0.000000 0.000000 12.910038 -8.960762 -4.936364 64.498173 1.985375 -4.822149 9.377261 20.395661 2.337508 0.000000 0.000000 0.000000 
0.000112 0.940560 0.000883 0.365099 -3.801571 8.362402 5.699789 -0.328988 -4.378581 0.254026 0.135334 -4.489739 1.230427 5.153666 8.175094 0.000000 0.000000 0.000000 -4.387064 0.687148 -7.393679 -2.877027 0.084017 -2.962854 -0.169086 -5.089142 10.014926 0.000000 0.000000 0.000000 6.052044 0.367305 -6.003852 -3.484562 1.525194 -5.754249 -5.037239 4.097139 3.161396 3.344311 -1.271676 -10.036698 0.000000 0.000000 0.000000 -16.088219 2.840834 -3.588490 -55.129519 -6.866643 -3.195834 -6.531017 -13.358907 1.179081 0.000000 0.000000 0.000000 11.771912 -9.360135 -5.045465 64.986375 1.361549 -5.060694 10.629592 20.691547 2.544202 0.000000 0.000000 0.000000 
0.000001 0.940993 0.000973 0.620571 -3.568425 8.238238 5.060160 -0.349460 -4.598525 0.779223 0.079315 -4.074872 1.212016 5.154009 8.212086 0.000000 0.000000 0.000000 -4.490201 0.679723 -7.353857 -3.236018 0.102343 -3.090681 -0.411409 -5.592607 10.151409 0.000000 0.000000 0.000000 5.839972 0.339792 -5.754700 -3.236120 1.427297 -5.718845 -5.337604 3.980579 3.107632 3.018030 -0.983527 -10.548888 0.000000 0.000000 0.000000 -16.129817 2.537953 -3.465715 -55.077769 -7.407082 -2.936366 -6.686397 -12.874581 1.151202 0.000000 0.000000 0.000000 11.507387 -9.709833 -5.157135 65.144862 1.199374 -5.137635 10.718254 20.729599 2.568470 0.000000 0.000000 0.000000 
-0.000140 0.941252 0.001072 0.830087 -3.367006 8.578805 5.012657 -0.367895 -4.843595 0.513425 0.100481 -4.088035 1.328418 5.385811 8.238450 0.000000 0.000000 0.000000 -4.563818 0.687652 -7.462097 -3.610444 0.095080 -3.579715 -0.427591 -5.843390 10.841182 0.000000 0.000000 0.000000 5.762568 0.352237 -5.983539 -3.280495 1.445155 -5.843471 -5.402807 3.678990 2.971501 3.033044 -1.048891 -10.190175 0.000000 0.000000 0.000000 -16.474380 2.922174 -3.684629 -54.854879 -7.621726 -2.801349 -6.413456 -12.374829 1.079943 0.000000 0.000000 0.000000 11.095152 -9.865541 -5.185031 65.570802 0.869595 -5.338299 10.800084 20.625031 2.556065 0.000000 0.000000 0.000000 
-0.000285 0.941483 0.001071 0.900182 -3.104956 8.610949 4.840830 -0.380329 -4.980944 0.571098 0.096207 -4.083487 1.348616 5.578398 8.728626 0.000000 0.000000 0.000000 -4.441494 0.680360 -7.358033 -3.876766 0.102949 -3.735273 -0.389714 -5.771358 10.941884 0.000000 0.000000 0.000000 5.729461 0.343504 -5.926009 -3.274567 1.447988 -5.693601 -5.393384 3.248030 2.797861 3.038529 -1.019469 -10.610938 0.000000 0.000000 0.000000 -16.609703 2.962151 -3.677526 -54.852920 -7.535612 -2.820337 -6.384527 -12.219551 1.066964 0.000000 0.000000 0.000000 10.948721 -9.859296 -5.190150 65.664010 0.588632 -5.509362 10.976990 20.853192 2.603750 0.000000 0.000000 0.000000 
-0.000411 0.941669 0.001026 0.846936 -2.761234 8.882480 4.816614 -0.409119 -5.443902 0.602347 0.080089 -3.734646 1.377262 5.533027 8.259122 0.000000 0.000000 0.000000 -4.266717 0.690585 -7.481697 -4.074188 0.104745 -3.902151 -0.463190 -5.809555 10.768526 0.000000 0.000000 0.000000 5.772738 0.343321 -6.005124 -3.176949 1.412440 -5.581654 -5.507462 3.116636 2.500074 3.310442 -1.230893 -10.268785 0.000000 0.000000 0.000000 -16.556815 2.868056 -3.648697 -54.712040 -7.671409 -2.716441 -6.413545 -12.011645 1.048476 0.000000 0.000000 0.000000 10.970349 -10.263870 -5.373201 65.762824 0.230204 -5.669344 11.114493 20.865677 2.629471 0.000000 0.000000 0.000000 
-0.000582 0.941940 0.000936 0.875792 -2.630065 8.891071 4.673553 -0.428684 -5.757538 0.595337 0.067907 -3.414500 1.483581 5.735006 8.260151 0.000000 0.000000 0.000000 -4.241995 0.676423 -7.271622 -4.179857 0.083871 -4.281113 -0.336627 -5.564952 10.829233 0.000000 0.000000 0.000000 5.801387 0.334347 -5.925059 -3.109711 1.385388 -5.661535 -5.521709 3.109098 2.472006 3.516563 -1.355470 -10.321869 0.000000 0.000000 0.000000 -16.266229 2.768930 -3.563106 -54.747318 -7.752891 -2.682633 -6.548344 -11.910971 1.051926 0.000000 0.000000 0.000000 11.051683 -10.449996 -5.466166 65.520209 0.045301 -5.740767 11.145109 20.826911 2.631813 0.000000 0.000000 0.000000 
-0.000798 0.942245 0.000890 0.913544 -2.521549 8.901156 4.662419 -0.442425 -6.009076 0.416004 0.074201 -3.199890 1.687058 6.080136 8.161019 0.000000 0.000000 0.000000 -4.271485 0.667439 -7.146564 -4.205558 0.056489 -4.674477 -0.291763 -5.497661 10.933033 0.000000 0.000000 0.000000 5.894867 0.328910 -5.871051 -3.184622 1.418354 -5.566329 -5.549305 3.235112 2.343168 3.862929 -1.579958 -10.241646 0.000000 0.000000 0.000000 -15.975405 2.590592 -3.466698 -54.750430 -7.978876 -2.570120 -6.574214 -11.741505 1.035563 0.000000 0.000000 0.000000 11.169241 -10.637843 -5.553499 65.482324 -0.143757 -5.808544 10.905051 20.842983 2.601303 0.000000 0.000000 0.000000 
